<?xml version="1.0" encoding="utf-8"?>
<svg xmlns="http://www.w3.org/2000/svg" version="1.1" width="1000" height="1000">

<line x1="0" y1="0" x2="1000" y2="0" stroke="lightgrey" />
<text x="10" y="-10" fill="lightgrey" font-size="16" >0</text>
<line x1="0" y1="200" x2="1000" y2="200" stroke="lightgrey" />
<text x="10" y="190" fill="lightgrey" font-size="16" >100</text>
<line x1="0" y1="400" x2="1000" y2="400" stroke="lightgrey" />
<text x="10" y="390" fill="lightgrey" font-size="16" >200</text>
<line x1="0" y1="600" x2="1000" y2="600" stroke="lightgrey" />
<text x="10" y="590" fill="lightgrey" font-size="16" >300</text>
<line x1="0" y1="800" x2="1000" y2="800" stroke="lightgrey" />
<text x="10" y="790" fill="lightgrey" font-size="16" >400</text>
<line x1="0" y1="1000" x2="1000" y2="1000" stroke="lightgrey" />
<text x="10" y="990" fill="lightgrey" font-size="16" >500</text>
<line x1="0" y1="0" x2="0" y2="1000" stroke="lightgrey" />
<text x="10" y="30" fill="lightgrey" font-size="16" >0</text>
<line x1="200" y1="0" x2="200" y2="1000" stroke="lightgrey" />
<text x="210" y="30" fill="lightgrey" font-size="16" >100</text>
<line x1="400" y1="0" x2="400" y2="1000" stroke="lightgrey" />
<text x="410" y="30" fill="lightgrey" font-size="16" >200</text>
<line x1="600" y1="0" x2="600" y2="1000" stroke="lightgrey" />
<text x="610" y="30" fill="lightgrey" font-size="16" >300</text>
<line x1="800" y1="0" x2="800" y2="1000" stroke="lightgrey" />
<text x="810" y="30" fill="lightgrey" font-size="16" >400</text>
<line x1="1000" y1="0" x2="1000" y2="1000" stroke="lightgrey" />
<text x="1010" y="30" fill="lightgrey" font-size="16" >500</text>
<line x1="200" y1="200" x2="200" y2="400" stroke="black" />
<text x="202" y="296" fill="black" font-size="16" >(2.0;5.0)</text>
<line x1="400" y1="200" x2="200" y2="400" stroke="black" />
<text x="302" y="296" fill="black" font-size="16" >(3.0;6.0)</text>
<line x1="200" y1="400" x2="400" y2="400" stroke="black" />
<text x="302" y="396" fill="black" font-size="16" >(6.0;9.0)</text>
<circle cx="200" cy="200" r="12" fill="white" />
<circle cx="200" cy="200" r="12" fill="none" stroke="black" stroke-width="2" />
<text x="196" y="204" fill="black" font-size="16" >0</text>
<circle cx="400" cy="200" r="12" fill="white" />
<circle cx="400" cy="200" r="12" fill="none" stroke="black" stroke-width="2" />
<text x="396" y="204" fill="black" font-size="16" >1</text>
<circle cx="200" cy="400" r="12" fill="white" />
<circle cx="200" cy="400" r="12" fill="none" stroke="black" stroke-width="2" />
<text x="196" y="404" fill="black" font-size="16" >2</text>
<circle cx="400" cy="400" r="12" fill="white" />
<circle cx="400" cy="400" r="12" fill="none" stroke="black" stroke-width="2" />
<text x="396" y="404" fill="black" font-size="16" >3</text>
<text x="436" y="930" fill="black" font-size="32" >(11.0 ; 20.0)</text>


</svg>
