<?xml version="1.0" encoding="utf-8"?>
<svg xmlns="http://www.w3.org/2000/svg" version="1.1" width="1000" height="1000">

<line x1="0" y1="0" x2="1000" y2="0" stroke="lightgrey" />
<text x="10" y="-10" fill="lightgrey" font-size="16" >0</text>
<line x1="0" y1="200" x2="1000" y2="200" stroke="lightgrey" />
<text x="10" y="190" fill="lightgrey" font-size="16" >100</text>
<line x1="0" y1="400" x2="1000" y2="400" stroke="lightgrey" />
<text x="10" y="390" fill="lightgrey" font-size="16" >200</text>
<line x1="0" y1="600" x2="1000" y2="600" stroke="lightgrey" />
<text x="10" y="590" fill="lightgrey" font-size="16" >300</text>
<line x1="0" y1="800" x2="1000" y2="800" stroke="lightgrey" />
<text x="10" y="790" fill="lightgrey" font-size="16" >400</text>
<line x1="0" y1="1000" x2="1000" y2="1000" stroke="lightgrey" />
<text x="10" y="990" fill="lightgrey" font-size="16" >500</text>
<line x1="0" y1="0" x2="0" y2="1000" stroke="lightgrey" />
<text x="10" y="30" fill="lightgrey" font-size="16" >0</text>
<line x1="200" y1="0" x2="200" y2="1000" stroke="lightgrey" />
<text x="210" y="30" fill="lightgrey" font-size="16" >100</text>
<line x1="400" y1="0" x2="400" y2="1000" stroke="lightgrey" />
<text x="410" y="30" fill="lightgrey" font-size="16" >200</text>
<line x1="600" y1="0" x2="600" y2="1000" stroke="lightgrey" />
<text x="610" y="30" fill="lightgrey" font-size="16" >300</text>
<line x1="800" y1="0" x2="800" y2="1000" stroke="lightgrey" />
<text x="810" y="30" fill="lightgrey" font-size="16" >400</text>
<line x1="1000" y1="0" x2="1000" y2="1000" stroke="lightgrey" />
<text x="1010" y="30" fill="lightgrey" font-size="16" >500</text>
<line x1="600" y1="200" x2="800" y2="200" stroke="black" />
<text x="702" y="196" fill="black" font-size="16" >(8.0;7.0)</text>
<line x1="800" y1="200" x2="800" y2="400" stroke="black" />
<text x="802" y="296" fill="black" font-size="16" >(6.0;4.0)</text>
<line x1="800" y1="400" x2="800" y2="600" stroke="black" />
<text x="802" y="496" fill="black" font-size="16" >(1.0;4.0)</text>
<line x1="800" y1="600" x2="800" y2="800" stroke="black" />
<text x="802" y="696" fill="black" font-size="16" >(1.0;8.0)</text>
<line x1="600" y1="400" x2="800" y2="400" stroke="black" />
<text x="702" y="396" fill="black" font-size="16" >(2.0;6.0)</text>
<line x1="600" y1="800" x2="800" y2="800" stroke="black" />
<text x="702" y="796" fill="black" font-size="16" >(3.0;5.0)</text>
<line x1="600" y1="400" x2="600" y2="600" stroke="black" />
<text x="602" y="496" fill="black" font-size="16" >(4.0;3.0)</text>
<line x1="400" y1="600" x2="600" y2="600" stroke="black" />
<text x="502" y="596" fill="black" font-size="16" >(1.0;1.0)</text>
<line x1="200" y1="600" x2="400" y2="600" stroke="black" />
<text x="302" y="596" fill="black" font-size="16" >(4.0;3.0)</text>
<line x1="200" y1="600" x2="200" y2="800" stroke="black" />
<text x="202" y="696" fill="black" font-size="16" >(1.0;7.0)</text>
<line x1="200" y1="800" x2="400" y2="800" stroke="black" />
<text x="302" y="796" fill="black" font-size="16" >(3.0;1.0)</text>
<line x1="200" y1="400" x2="200" y2="600" stroke="black" />
<text x="202" y="496" fill="black" font-size="16" >(8.0;3.0)</text>
<line x1="200" y1="400" x2="400" y2="400" stroke="black" />
<text x="302" y="396" fill="black" font-size="16" >(5.0;6.0)</text>
<line x1="400" y1="200" x2="400" y2="400" stroke="black" />
<text x="402" y="296" fill="black" font-size="16" >(7.0;2.0)</text>
<line x1="200" y1="200" x2="400" y2="200" stroke="black" />
<text x="302" y="196" fill="black" font-size="16" >(6.0;5.0)</text>
<circle cx="200" cy="200" r="12" fill="white" />
<circle cx="200" cy="200" r="12" fill="none" stroke="black" stroke-width="2" />
<text x="196" y="204" fill="black" font-size="16" >0</text>
<circle cx="400" cy="200" r="12" fill="white" />
<circle cx="400" cy="200" r="12" fill="none" stroke="black" stroke-width="2" />
<text x="396" y="204" fill="black" font-size="16" >1</text>
<circle cx="600" cy="200" r="12" fill="white" />
<circle cx="600" cy="200" r="12" fill="none" stroke="black" stroke-width="2" />
<text x="596" y="204" fill="black" font-size="16" >2</text>
<circle cx="800" cy="200" r="12" fill="white" />
<circle cx="800" cy="200" r="12" fill="none" stroke="black" stroke-width="2" />
<text x="796" y="204" fill="black" font-size="16" >3</text>
<circle cx="200" cy="400" r="12" fill="white" />
<circle cx="200" cy="400" r="12" fill="none" stroke="black" stroke-width="2" />
<text x="196" y="404" fill="black" font-size="16" >4</text>
<circle cx="400" cy="400" r="12" fill="white" />
<circle cx="400" cy="400" r="12" fill="none" stroke="black" stroke-width="2" />
<text x="396" y="404" fill="black" font-size="16" >5</text>
<circle cx="600" cy="400" r="12" fill="white" />
<circle cx="600" cy="400" r="12" fill="none" stroke="black" stroke-width="2" />
<text x="596" y="404" fill="black" font-size="16" >6</text>
<circle cx="800" cy="400" r="12" fill="white" />
<circle cx="800" cy="400" r="12" fill="none" stroke="black" stroke-width="2" />
<text x="796" y="404" fill="black" font-size="16" >7</text>
<circle cx="200" cy="600" r="12" fill="white" />
<circle cx="200" cy="600" r="12" fill="none" stroke="black" stroke-width="2" />
<text x="196" y="604" fill="black" font-size="16" >8</text>
<circle cx="400" cy="600" r="12" fill="white" />
<circle cx="400" cy="600" r="12" fill="none" stroke="black" stroke-width="2" />
<text x="396" y="604" fill="black" font-size="16" >9</text>
<circle cx="600" cy="600" r="12" fill="white" />
<circle cx="600" cy="600" r="12" fill="none" stroke="black" stroke-width="2" />
<text x="592" y="604" fill="black" font-size="16" >10</text>
<circle cx="800" cy="600" r="12" fill="white" />
<circle cx="800" cy="600" r="12" fill="none" stroke="black" stroke-width="2" />
<text x="792" y="604" fill="black" font-size="16" >11</text>
<circle cx="200" cy="800" r="12" fill="white" />
<circle cx="200" cy="800" r="12" fill="none" stroke="black" stroke-width="2" />
<text x="192" y="804" fill="black" font-size="16" >12</text>
<circle cx="400" cy="800" r="12" fill="white" />
<circle cx="400" cy="800" r="12" fill="none" stroke="black" stroke-width="2" />
<text x="392" y="804" fill="black" font-size="16" >13</text>
<circle cx="600" cy="800" r="12" fill="white" />
<circle cx="600" cy="800" r="12" fill="none" stroke="black" stroke-width="2" />
<text x="592" y="804" fill="black" font-size="16" >14</text>
<circle cx="800" cy="800" r="12" fill="white" />
<circle cx="800" cy="800" r="12" fill="none" stroke="black" stroke-width="2" />
<text x="792" y="804" fill="black" font-size="16" >15</text>
<text x="356" y="930" fill="black" font-size="32" >Cout total:(60.0 ; 65.0)</text>


</svg>
